# xmcd
#
# Track frame offsets:
# 150
# 13423
# 32791
# 47439
# 57498
# 77106
# 89296
# 98371
# 106272
# 117874
# 128687
# 139624
# 152686
# 164272
# 175069
# 186603
# 197918
# 207372
# 218281
# 232212
# 243494
# 253556
# 265845
# 277882
# 288884
#
# Disc length: 4001 seconds
#
#
# Revision: 0
# Processed by: cddbd v1.5.1PL0 Copyright (c) Steve Scherf et al.
# Submitted via: FreeRIP 2.60 
#
DISCID=5c0f9f19
DTITLE=Various Artist - Country's Greatest Hits
DYEAR=1999
DGENRE=Country
TTITLE0=Tell Laura I love Her
TTITLE1=Don't Cry Joni
TTITLE2=Sad Movies
TTITLE3=Set Him Free
TTITLE4=El Paso
TTITLE5=This world is not my home
TTITLE6=You're the reason
TTITLE7=Dear John
TTITLE8=Misty Moonlight
TTITLE9=Happy Birthday to me
TTITLE10=Linda on my mind
TTITLE11=She's got you
TTITLE12=Blue Transistor Radio
TTITLE13=Tears will be the chaser for your wine
TTITLE14=I don't wanna play house
TTITLE15=Jolene
TTITLE16=Together Again
TTITLE17=Red River Valley
TTITLE18=Am I that easy to forget
TTITLE19=Happy journey
TTITLE20=My hero
TTITLE21=If a boy only knew
TTITLE22=I'm not through lovin you yet
TTITLE23=I don't care
TTITLE24=I take it back
EXTD=
EXTT0=
EXTT1=
EXTT2=
EXTT3=
EXTT4=
EXTT5=
EXTT6=
EXTT7=
EXTT8=
EXTT9=
EXTT10=
EXTT11=
EXTT12=
EXTT13=
EXTT14=
EXTT15=
EXTT16=
EXTT17=
EXTT18=
EXTT19=
EXTT20=
EXTT21=
EXTT22=
EXTT23=
EXTT24=
PLAYORDER=
